# xmcd CD database file
# Copyright (C) 1993-1996 Ti Kan
#
# Track frame offsets:
#  150
#  17555
#  38501
#  53707
#  75311
#
# Disc length: 1347 seconds
#
# Revision: 1
# Processed by: cddbd v1.5.2PL0 Copyright (c) Steve Scherf et al.
# Submitted via: Advanced CD Ripper Pro 2.0
#
DISCID=27054105
DTITLE=KADER - ÝLLAKÝ KADER
DYEAR=2008
DGENRE=
TTITLE0=ÝLLAKÝ
TTITLE1=GURURLU OL
TTITLE2=DÖNCEM BEN SANA
TTITLE3=VAR MI BE
TTITLE4=VAR MI BE (REMIX)
EXTD=
EXTT0=
EXTT1=
EXTT2=
EXTT3=
EXTT4=
PLAYORDER=
